{
    "asset" : {
        "generator" : "Khronos glTF Blender I/O v0.9.36",
        "version" : "2.0"
    },
    "scene" : 0,
    "scenes" : [
        {
            "name" : "Scene",
            "nodes" : [
                0,
                1,
                2,
                3,
                4,
                5,
                6,
                7
            ]
        }
    ],
    "nodes" : [
        {
            "mesh" : 0,
            "name" : "Base",
            "rotation" : [
                0.5,
                0.5000000596046448,
                -0.5000000596046448,
                0.5
            ],
            "scale" : [
                7.711373805999756,
                7.711373805999756,
                7.711373805999756
            ],
            "translation" : [
                -0.5422191023826599,
                -1.6994075775146484,
                0.019193679094314575
            ]
        },
        {
            "mesh" : 1,
            "name" : "Motor",
            "rotation" : [
                0.5,
                0.5000000596046448,
                -0.5000000596046448,
                0.5
            ],
            "scale" : [
                7.711373805999756,
                7.711373805999756,
                7.711373805999756
            ],
            "translation" : [
                3.254699230194092,
                1.4095516204833984,
                0.08827710151672363
            ]
        },
        {
            "mesh" : 2,
            "name" : "Pump",
            "rotation" : [
                0.5,
                0.5000000596046448,
                -0.5000000596046448,
                0.5
            ],
            "scale" : [
                7.711373805999756,
                7.711373805999756,
                7.711373805999756
            ],
            "translation" : [
                -4.04010009765625,
                0.8120808601379395,
                -0.05274081602692604
            ]
        },
        {
            "mesh" : 3,
            "name" : "Coupling",
            "rotation" : [
                0.5,
                0.5000000596046448,
                -0.5000000596046448,
                0.5
            ],
            "scale" : [
                7.711373805999756,
                7.711373805999756,
                7.711373805999756
            ],
            "translation" : [
                -0.9937978982925415,
                1.3681869506835938,
                0.019193675369024277
            ]
        },
        {
            "mesh" : 4,
            "name" : "Sensor1.001",
            "rotation" : [
                0,
                0.7071067690849304,
                0,
                0.7071067690849304
            ],
            "scale" : [
                1.999999761581421,
                1,
                1.999999761581421
            ],
            "translation" : [
                -2.3641271591186523,
                2.111527681350708,
                0.0421525202691555
            ]
        },
        {
            "mesh" : 4,
            "name" : "Sensor1",
            "rotation" : [
                0,
                0.7071067690849304,
                0,
                0.7071067690849304
            ],
            "scale" : [
                1.999999761581421,
                1,
                1.999999761581421
            ],
            "translation" : [
                -5.994375705718994,
                2.111527681350708,
                0.019176479429006577
            ]
        },
        {
            "mesh" : 4,
            "name" : "Sensor1.002",
            "rotation" : [
                0,
                0.7071067690849304,
                0,
                0.7071067690849304
            ],
            "scale" : [
                1.999999761581421,
                1,
                1.999999761581421
            ],
            "translation" : [
                0.5943330526351929,
                1.9268548488616943,
                0.04215240105986595
            ]
        },
        {
            "mesh" : 4,
            "name" : "Sensor1.003",
            "rotation" : [
                0,
                0.7071067690849304,
                0,
                0.7071067690849304
            ],
            "scale" : [
                1.999999761581421,
                1,
                1.999999761581421
            ],
            "translation" : [
                4.8890862464904785,
                2.8576061725616455,
                0.04215240105986595
            ]
        }
    ],
    "materials" : [
        {
            "doubleSided" : true,
            "emissiveFactor" : [
                0,
                0,
                0
            ],
            "name" : "wrought_steel",
            "pbrMetallicRoughness" : {
                "baseColorFactor" : [
                    0.14195884764194489,
                    0.14195884764194489,
                    0.14195884764194489,
                    1
                ],
                "baseColorTexture" : {
                    "index" : 0,
                    "texCoord" : 0
                },
                "metallicRoughnessTexture" : {
                    "index" : 1,
                    "texCoord" : 0
                }
            }
        },
        {
            "doubleSided" : true,
            "emissiveFactor" : [
                0,
                0,
                0
            ],
            "name" : "cast_carbon_steel",
            "pbrMetallicRoughness" : {
                "baseColorFactor" : [
                    0.001418392639607191,
                    0.15098905563354492,
                    0.2307903915643692,
                    1
                ],
                "metallicRoughnessTexture" : {
                    "index" : 2,
                    "texCoord" : 0
                }
            }
        },
        {
            "doubleSided" : true,
            "emissiveFactor" : [
                0,
                0,
                0
            ],
            "name" : "polished_aluminum",
            "pbrMetallicRoughness" : {
                "baseColorTexture" : {
                    "index" : 3,
                    "texCoord" : 0
                },
                "metallicRoughnessTexture" : {
                    "index" : 4,
                    "texCoord" : 0
                }
            }
        },
        {
            "doubleSided" : true,
            "emissiveFactor" : [
                0,
                0,
                0
            ],
            "name" : "matte_steel",
            "pbrMetallicRoughness" : {
                "baseColorFactor" : [
                    0.004948117304593325,
                    0.13171644508838654,
                    0.1808454990386963,
                    1
                ],
                "metallicRoughnessTexture" : {
                    "index" : 5,
                    "texCoord" : 0
                }
            }
        }
    ],
    "meshes" : [
        {
            "name" : "carbon steel_carbon steel_0",
            "primitives" : [
                {
                    "attributes" : {
                        "POSITION" : 0,
                        "NORMAL" : 1,
                        "TEXCOORD_0" : 2
                    },
                    "indices" : 3,
                    "material" : 0
                }
            ]
        },
        {
            "name" : "cast carbon steel_cast carbon steel_0",
            "primitives" : [
                {
                    "attributes" : {
                        "POSITION" : 4,
                        "NORMAL" : 5,
                        "TEXCOORD_0" : 6
                    },
                    "indices" : 7,
                    "material" : 1
                }
            ]
        },
        {
            "name" : "cast carbon steel_cast carbon steel_0.001",
            "primitives" : [
                {
                    "attributes" : {
                        "POSITION" : 8,
                        "NORMAL" : 9,
                        "TEXCOORD_0" : 10
                    },
                    "indices" : 11,
                    "material" : 1
                }
            ]
        },
        {
            "name" : "polished aluminum_polished aluminum_0",
            "primitives" : [
                {
                    "attributes" : {
                        "POSITION" : 12,
                        "NORMAL" : 13,
                        "TEXCOORD_0" : 14
                    },
                    "indices" : 15,
                    "material" : 2
                },
                {
                    "attributes" : {
                        "POSITION" : 16,
                        "NORMAL" : 17,
                        "TEXCOORD_0" : 18
                    },
                    "indices" : 19,
                    "material" : 0
                },
                {
                    "attributes" : {
                        "POSITION" : 20,
                        "NORMAL" : 21,
                        "TEXCOORD_0" : 22
                    },
                    "indices" : 23,
                    "material" : 3
                }
            ]
        },
        {
            "name" : "Cylinder",
            "primitives" : [
                {
                    "attributes" : {
                        "POSITION" : 24,
                        "NORMAL" : 25,
                        "TEXCOORD_0" : 26
                    },
                    "indices" : 27
                }
            ]
        }
    ],
    "textures" : [
        {
            "source" : 0
        },
        {
            "source" : 1
        },
        {
            "source" : 2
        },
        {
            "source" : 3
        },
        {
            "source" : 4
        },
        {
            "source" : 5
        }
    ],
    "images" : [
        {
            "bufferView" : 4,
            "mimeType" : "image/png",
            "name" : "wrought_steel_baseColor"
        },
        {
            "bufferView" : 5,
            "mimeType" : "image/png",
            "name" : "wrought_steel_metallicRoughness"
        },
        {
            "bufferView" : 10,
            "mimeType" : "image/png",
            "name" : "cast_carbon_steel_metallicRoughness"
        },
        {
            "bufferView" : 19,
            "mimeType" : "image/png",
            "name" : "polished_aluminum_baseColor"
        },
        {
            "bufferView" : 20,
            "mimeType" : "image/png",
            "name" : "polished_aluminum_metallicRoughness"
        },
        {
            "bufferView" : 29,
            "mimeType" : "image/png",
            "name" : "matte_steel_metallicRoughness"
        }
    ],
    "accessors" : [
        {
            "bufferView" : 0,
            "componentType" : 5126,
            "count" : 14822,
            "max" : [
                0.3499999940395355,
                0.8500001430511475,
                0.060000088065862656
            ],
            "min" : [
                -0.3499999940395355,
                -0.6999998092651367,
                -0.23773393034934998
            ],
            "type" : "VEC3"
        },
        {
            "bufferView" : 1,
            "componentType" : 5126,
            "count" : 14822,
            "type" : "VEC3"
        },
        {
            "bufferView" : 2,
            "componentType" : 5126,
            "count" : 14822,
            "type" : "VEC2"
        },
        {
            "bufferView" : 3,
            "componentType" : 5123,
            "count" : 27036,
            "type" : "SCALAR"
        },
        {
            "bufferView" : 6,
            "componentType" : 5126,
            "count" : 8172,
            "max" : [
                0.17576703429222107,
                0.2969752848148346,
                0.1653655469417572
            ],
            "min" : [
                -0.25402215123176575,
                -0.3550247251987457,
                -0.21163439750671387
            ],
            "type" : "VEC3"
        },
        {
            "bufferView" : 7,
            "componentType" : 5126,
            "count" : 8172,
            "type" : "VEC3"
        },
        {
            "bufferView" : 8,
            "componentType" : 5126,
            "count" : 8172,
            "type" : "VEC2"
        },
        {
            "bufferView" : 9,
            "componentType" : 5123,
            "count" : 16080,
            "type" : "SCALAR"
        },
        {
            "bufferView" : 11,
            "componentType" : 5126,
            "count" : 17580,
            "max" : [
                0.2954716086387634,
                0.3694003224372864,
                0.20060305297374725
            ],
            "min" : [
                -0.31412839889526367,
                -0.30459970235824585,
                -0.2848687171936035
            ],
            "type" : "VEC3"
        },
        {
            "bufferView" : 12,
            "componentType" : 5126,
            "count" : 17580,
            "type" : "VEC3"
        },
        {
            "bufferView" : 13,
            "componentType" : 5126,
            "count" : 17580,
            "type" : "VEC2"
        },
        {
            "bufferView" : 14,
            "componentType" : 5123,
            "count" : 34374,
            "type" : "SCALAR"
        },
        {
            "bufferView" : 15,
            "componentType" : 5126,
            "count" : 526,
            "max" : [
                0.02539963088929653,
                0.035320281982421875,
                0.025401055812835693
            ],
            "min" : [
                -0.02539963088929653,
                -0.025639712810516357,
                -0.025398343801498413
            ],
            "type" : "VEC3"
        },
        {
            "bufferView" : 16,
            "componentType" : 5126,
            "count" : 526,
            "type" : "VEC3"
        },
        {
            "bufferView" : 17,
            "componentType" : 5126,
            "count" : 526,
            "type" : "VEC2"
        },
        {
            "bufferView" : 18,
            "componentType" : 5123,
            "count" : 1704,
            "type" : "SCALAR"
        },
        {
            "bufferView" : 21,
            "componentType" : 5126,
            "count" : 3172,
            "max" : [
                0.07619841396808624,
                0.1369202733039856,
                0.07618579268455505
            ],
            "min" : [
                -0.07619842886924744,
                0.035320281982421875,
                -0.07618317008018494
            ],
            "type" : "VEC3"
        },
        {
            "bufferView" : 22,
            "componentType" : 5126,
            "count" : 3172,
            "type" : "VEC3"
        },
        {
            "bufferView" : 23,
            "componentType" : 5126,
            "count" : 3172,
            "type" : "VEC2"
        },
        {
            "bufferView" : 24,
            "componentType" : 5123,
            "count" : 13956,
            "type" : "SCALAR"
        },
        {
            "bufferView" : 25,
            "componentType" : 5126,
            "count" : 4140,
            "max" : [
                0.07619840651750565,
                0.25376027822494507,
                0.07618580758571625
            ],
            "min" : [
                -0.07619843631982803,
                0.1369202733039856,
                -0.07618315517902374
            ],
            "type" : "VEC3"
        },
        {
            "bufferView" : 26,
            "componentType" : 5126,
            "count" : 4140,
            "type" : "VEC3"
        },
        {
            "bufferView" : 27,
            "componentType" : 5126,
            "count" : 4140,
            "type" : "VEC2"
        },
        {
            "bufferView" : 28,
            "componentType" : 5123,
            "count" : 13044,
            "type" : "SCALAR"
        },
        {
            "bufferView" : 30,
            "componentType" : 5126,
            "count" : 48,
            "max" : [
                0.10000002384185791,
                0.2500000298023224,
                0.10000002384185791
            ],
            "min" : [
                -0.10000002384185791,
                -0.2500000298023224,
                -0.10000002384185791
            ],
            "type" : "VEC3"
        },
        {
            "bufferView" : 31,
            "componentType" : 5126,
            "count" : 48,
            "type" : "VEC3"
        },
        {
            "bufferView" : 32,
            "componentType" : 5126,
            "count" : 48,
            "type" : "VEC2"
        },
        {
            "bufferView" : 33,
            "componentType" : 5123,
            "count" : 84,
            "type" : "SCALAR"
        }
    ],
    "bufferViews" : [
        {
            "buffer" : 0,
            "byteLength" : 177864,
            "byteOffset" : 0
        },
        {
            "buffer" : 0,
            "byteLength" : 177864,
            "byteOffset" : 177864
        },
        {
            "buffer" : 0,
            "byteLength" : 118576,
            "byteOffset" : 355728
        },
        {
            "buffer" : 0,
            "byteLength" : 54072,
            "byteOffset" : 474304
        },
        {
            "buffer" : 0,
            "byteLength" : 319767,
            "byteOffset" : 528376
        },
        {
            "buffer" : 0,
            "byteLength" : 311802,
            "byteOffset" : 848144
        },
        {
            "buffer" : 0,
            "byteLength" : 98064,
            "byteOffset" : 1159948
        },
        {
            "buffer" : 0,
            "byteLength" : 98064,
            "byteOffset" : 1258012
        },
        {
            "buffer" : 0,
            "byteLength" : 65376,
            "byteOffset" : 1356076
        },
        {
            "buffer" : 0,
            "byteLength" : 32160,
            "byteOffset" : 1421452
        },
        {
            "buffer" : 0,
            "byteLength" : 87539,
            "byteOffset" : 1453612
        },
        {
            "buffer" : 0,
            "byteLength" : 210960,
            "byteOffset" : 1541152
        },
        {
            "buffer" : 0,
            "byteLength" : 210960,
            "byteOffset" : 1752112
        },
        {
            "buffer" : 0,
            "byteLength" : 140640,
            "byteOffset" : 1963072
        },
        {
            "buffer" : 0,
            "byteLength" : 68748,
            "byteOffset" : 2103712
        },
        {
            "buffer" : 0,
            "byteLength" : 6312,
            "byteOffset" : 2172460
        },
        {
            "buffer" : 0,
            "byteLength" : 6312,
            "byteOffset" : 2178772
        },
        {
            "buffer" : 0,
            "byteLength" : 4208,
            "byteOffset" : 2185084
        },
        {
            "buffer" : 0,
            "byteLength" : 3408,
            "byteOffset" : 2189292
        },
        {
            "buffer" : 0,
            "byteLength" : 148904,
            "byteOffset" : 2192700
        },
        {
            "buffer" : 0,
            "byteLength" : 141072,
            "byteOffset" : 2341604
        },
        {
            "buffer" : 0,
            "byteLength" : 38064,
            "byteOffset" : 2482676
        },
        {
            "buffer" : 0,
            "byteLength" : 38064,
            "byteOffset" : 2520740
        },
        {
            "buffer" : 0,
            "byteLength" : 25376,
            "byteOffset" : 2558804
        },
        {
            "buffer" : 0,
            "byteLength" : 27912,
            "byteOffset" : 2584180
        },
        {
            "buffer" : 0,
            "byteLength" : 49680,
            "byteOffset" : 2612092
        },
        {
            "buffer" : 0,
            "byteLength" : 49680,
            "byteOffset" : 2661772
        },
        {
            "buffer" : 0,
            "byteLength" : 33120,
            "byteOffset" : 2711452
        },
        {
            "buffer" : 0,
            "byteLength" : 26088,
            "byteOffset" : 2744572
        },
        {
            "buffer" : 0,
            "byteLength" : 87539,
            "byteOffset" : 2770660
        },
        {
            "buffer" : 0,
            "byteLength" : 576,
            "byteOffset" : 2858200
        },
        {
            "buffer" : 0,
            "byteLength" : 576,
            "byteOffset" : 2858776
        },
        {
            "buffer" : 0,
            "byteLength" : 384,
            "byteOffset" : 2859352
        },
        {
            "buffer" : 0,
            "byteLength" : 168,
            "byteOffset" : 2859736
        }
    ],
    "buffers" : [
        {
            "byteLength" : 2859904,
            "uri" : "data:application/octet-stream;base64,"
        }
    ]
}
