{
    "asset" : {
        "generator" : "Khronos glTF Blender I/O v0.9.36",
        "version" : "2.0"
    },
    "scene" : 0,
    "scenes" : [
        {
            "name" : "Scene",
            "nodes" : [
                22
            ]
        }
    ],
    "nodes" : [
        {
            "mesh" : 0,
            "name" : "carbon steel_carbon steel_0"
        },
        {
            "children" : [
                0
            ],
            "name" : "carbon steel"
        },
        {
            "mesh" : 1,
            "name" : "cast carbon steel_cast carbon steel_0"
        },
        {
            "children" : [
                2
            ],
            "name" : "cast carbon steel"
        },
        {
            "mesh" : 2,
            "name" : "matte steel_matte steel_0"
        },
        {
            "children" : [
                4
            ],
            "name" : "matte steel"
        },
        {
            "mesh" : 3,
            "name" : "polished aluminum_polished aluminum_0"
        },
        {
            "children" : [
                6
            ],
            "name" : "polished aluminum"
        },
        {
            "mesh" : 4,
            "name" : "wrought steel_wrought steel_0"
        },
        {
            "children" : [
                8
            ],
            "name" : "wrought steel"
        },
        {
            "mesh" : 5,
            "name" : "wrought steel-2_wrought steel_0"
        },
        {
            "children" : [
                10
            ],
            "name" : "wrought steel-2"
        },
        {
            "children" : [
                1,
                3,
                5,
                7,
                9,
                11
            ],
            "name" : "Root"
        },
        {
            "children" : [
                12
            ],
            "name" : "22B",
            "translation" : [
                0,
                0,
                -0.06030000001192093
            ]
        },
        {
            "name" : "Node.001"
        },
        {
            "children" : [
                14
            ],
            "name" : "Default Camera",
            "rotation" : [
                -0.10669008642435074,
                -0.044192492961883545,
                -0.9176985621452332,
                0.3801232576370239
            ],
            "translation" : [
                39.90507888793945,
                39.90507888793945,
                -13.3016996383667
            ]
        },
        {
            "name" : "Node"
        },
        {
            "children" : [
                16
            ],
            "name" : "SOLIDWORKS Viewport",
            "rotation" : [
                0.1438407152891159,
                -0.35660141706466675,
                0.21389061212539673,
                0.8979957103729248
            ],
            "translation" : [
                -4.302787780761719,
                -1.106034278869629,
                -4.9549736976623535
            ]
        },
        {
            "children" : [
                13,
                15,
                17
            ],
            "name" : "Bunkspeed Root",
            "scale" : [
                100,
                100,
                100
            ]
        },
        {
            "children" : [
                18
            ],
            "name" : "RootNode"
        },
        {
            "children" : [
                19
            ],
            "name" : "9f1e802e3464407e930e006d528cf6fa.fbx",
            "rotation" : [
                0.7071068286895752,
                0,
                0,
                0.7071068286895752
            ]
        },
        {
            "children" : [
                20
            ],
            "name" : "RootNode (model correction matrix)"
        },
        {
            "children" : [
                21
            ],
            "name" : "RootNode (gltf orientation matrix)"
        }
    ],
    "materials" : [
        {
            "doubleSided" : true,
            "emissiveFactor" : [
                0,
                0,
                0
            ],
            "name" : "carbon_steel",
            "pbrMetallicRoughness" : {
                "baseColorFactor" : [
                    0.6439327597618103,
                    0.5835978984832764,
                    0.0021148209925740957,
                    1
                ],
                "metallicRoughnessTexture" : {
                    "index" : 0,
                    "texCoord" : 0
                }
            }
        },
        {
            "doubleSided" : true,
            "emissiveFactor" : [
                0,
                0,
                0
            ],
            "name" : "cast_carbon_steel",
            "pbrMetallicRoughness" : {
                "baseColorFactor" : [
                    0.001418392639607191,
                    0.15098905563354492,
                    0.2307903915643692,
                    1
                ],
                "metallicRoughnessTexture" : {
                    "index" : 1,
                    "texCoord" : 0
                }
            }
        },
        {
            "doubleSided" : true,
            "emissiveFactor" : [
                0,
                0,
                0
            ],
            "name" : "matte_steel",
            "pbrMetallicRoughness" : {
                "baseColorFactor" : [
                    0.004948117304593325,
                    0.13171644508838654,
                    0.1808454990386963,
                    1
                ],
                "metallicRoughnessTexture" : {
                    "index" : 2,
                    "texCoord" : 0
                }
            }
        },
        {
            "doubleSided" : true,
            "emissiveFactor" : [
                0,
                0,
                0
            ],
            "name" : "polished_aluminum",
            "pbrMetallicRoughness" : {
                "baseColorTexture" : {
                    "index" : 3,
                    "texCoord" : 0
                },
                "metallicRoughnessTexture" : {
                    "index" : 4,
                    "texCoord" : 0
                }
            }
        },
        {
            "doubleSided" : true,
            "emissiveFactor" : [
                0,
                0,
                0
            ],
            "name" : "wrought_steel",
            "pbrMetallicRoughness" : {
                "baseColorFactor" : [
                    0.14195884764194489,
                    0.14195884764194489,
                    0.14195884764194489,
                    1
                ],
                "baseColorTexture" : {
                    "index" : 5,
                    "texCoord" : 0
                },
                "metallicRoughnessTexture" : {
                    "index" : 6,
                    "texCoord" : 0
                }
            }
        },
        {
            "doubleSided" : true,
            "emissiveFactor" : [
                0,
                0,
                0
            ],
            "name" : "wrought_steel_0",
            "pbrMetallicRoughness" : {
                "baseColorFactor" : [
                    0,
                    0,
                    0,
                    1
                ],
                "metallicFactor" : 0,
                "roughnessFactor" : 0.9831820726394653
            }
        }
    ],
    "meshes" : [
        {
            "name" : "carbon steel_carbon steel_0",
            "primitives" : [
                {
                    "attributes" : {
                        "POSITION" : 0,
                        "NORMAL" : 1,
                        "TEXCOORD_0" : 2
                    },
                    "indices" : 3,
                    "material" : 0
                }
            ]
        },
        {
            "name" : "cast carbon steel_cast carbon steel_0",
            "primitives" : [
                {
                    "attributes" : {
                        "POSITION" : 4,
                        "NORMAL" : 5,
                        "TEXCOORD_0" : 6
                    },
                    "indices" : 7,
                    "material" : 1
                }
            ]
        },
        {
            "name" : "matte steel_matte steel_0",
            "primitives" : [
                {
                    "attributes" : {
                        "POSITION" : 8,
                        "NORMAL" : 9,
                        "TEXCOORD_0" : 10
                    },
                    "indices" : 11,
                    "material" : 2
                }
            ]
        },
        {
            "name" : "polished aluminum_polished aluminum_0",
            "primitives" : [
                {
                    "attributes" : {
                        "POSITION" : 12,
                        "NORMAL" : 13,
                        "TEXCOORD_0" : 14
                    },
                    "indices" : 15,
                    "material" : 3
                }
            ]
        },
        {
            "name" : "wrought steel_wrought steel_0",
            "primitives" : [
                {
                    "attributes" : {
                        "POSITION" : 16,
                        "NORMAL" : 17,
                        "TEXCOORD_0" : 18
                    },
                    "indices" : 19,
                    "material" : 4
                }
            ]
        },
        {
            "name" : "wrought steel-2_wrought steel_0",
            "primitives" : [
                {
                    "attributes" : {
                        "POSITION" : 20,
                        "NORMAL" : 21,
                        "TEXCOORD_0" : 22
                    },
                    "indices" : 23,
                    "material" : 5
                }
            ]
        }
    ],
    "textures" : [
        {
            "source" : 0
        },
        {
            "source" : 1
        },
        {
            "source" : 2
        },
        {
            "source" : 3
        },
        {
            "source" : 4
        },
        {
            "source" : 5
        },
        {
            "source" : 6
        }
    ],
    "images" : [
        {
            "bufferView" : 4,
            "mimeType" : "image/png",
            "name" : "carbon_steel_metallicRoughness"
        },
        {
            "bufferView" : 9,
            "mimeType" : "image/png",
            "name" : "cast_carbon_steel_metallicRoughness"
        },
        {
            "bufferView" : 14,
            "mimeType" : "image/png",
            "name" : "matte_steel_metallicRoughness"
        },
        {
            "bufferView" : 19,
            "mimeType" : "image/png",
            "name" : "polished_aluminum_baseColor"
        },
        {
            "bufferView" : 20,
            "mimeType" : "image/png",
            "name" : "polished_aluminum_metallicRoughness"
        },
        {
            "bufferView" : 25,
            "mimeType" : "image/png",
            "name" : "wrought_steel_baseColor"
        },
        {
            "bufferView" : 26,
            "mimeType" : "image/png",
            "name" : "wrought_steel_metallicRoughness"
        }
    ],
    "accessors" : [
        {
            "bufferView" : 0,
            "componentType" : 5126,
            "count" : 14840,
            "max" : [
                0.3499999940395355,
                1.5499999523162842,
                0.05999999865889549
            ],
            "min" : [
                -0.3499999940395355,
                -2.220446049250313e-16,
                -0.23773400485515594
            ],
            "type" : "VEC3"
        },
        {
            "bufferView" : 1,
            "componentType" : 5126,
            "count" : 14840,
            "type" : "VEC3"
        },
        {
            "bufferView" : 2,
            "componentType" : 5126,
            "count" : 14840,
            "type" : "VEC2"
        },
        {
            "bufferView" : 3,
            "componentType" : 5123,
            "count" : 27036,
            "type" : "SCALAR"
        },
        {
            "bufferView" : 5,
            "componentType" : 5126,
            "count" : 25737,
            "max" : [
                0.30480000376701355,
                1.4893540143966675,
                -0.12508323788642883
            ],
            "min" : [
                -0.30480000376701355,
                -0.05820000171661377,
                -0.614799976348877
            ],
            "type" : "VEC3"
        },
        {
            "bufferView" : 6,
            "componentType" : 5126,
            "count" : 25737,
            "type" : "VEC3"
        },
        {
            "bufferView" : 7,
            "componentType" : 5126,
            "count" : 25737,
            "type" : "VEC2"
        },
        {
            "bufferView" : 8,
            "componentType" : 5123,
            "count" : 50454,
            "type" : "SCALAR"
        },
        {
            "bufferView" : 10,
            "componentType" : 5126,
            "count" : 4138,
            "max" : [
                0.07619842141866684,
                0.8952000141143799,
                -0.3216155171394348
            ],
            "min" : [
                -0.07619842141866684,
                0.7783600091934204,
                -0.4739844799041748
            ],
            "type" : "VEC3"
        },
        {
            "bufferView" : 11,
            "componentType" : 5126,
            "count" : 4138,
            "type" : "VEC3"
        },
        {
            "bufferView" : 12,
            "componentType" : 5126,
            "count" : 4138,
            "type" : "VEC2"
        },
        {
            "bufferView" : 13,
            "componentType" : 5123,
            "count" : 13044,
            "type" : "SCALAR"
        },
        {
            "bufferView" : 15,
            "componentType" : 5126,
            "count" : 525,
            "max" : [
                0.02539963088929653,
                0.6767600178718567,
                -0.37240031361579895
            ],
            "min" : [
                -0.02539963088929653,
                0.6158000230789185,
                -0.42319971323013306
            ],
            "type" : "VEC3"
        },
        {
            "bufferView" : 16,
            "componentType" : 5126,
            "count" : 525,
            "type" : "VEC3"
        },
        {
            "bufferView" : 17,
            "componentType" : 5126,
            "count" : 525,
            "type" : "VEC2"
        },
        {
            "bufferView" : 18,
            "componentType" : 5123,
            "count" : 1704,
            "type" : "SCALAR"
        },
        {
            "bufferView" : 21,
            "componentType" : 5126,
            "count" : 3136,
            "max" : [
                0.07619842141866684,
                0.7783600091934204,
                -0.3216155171394348
            ],
            "min" : [
                -0.07619842141866684,
                0.6767600178718567,
                -0.4739844799041748
            ],
            "type" : "VEC3"
        },
        {
            "bufferView" : 22,
            "componentType" : 5126,
            "count" : 3136,
            "type" : "VEC3"
        },
        {
            "bufferView" : 23,
            "componentType" : 5126,
            "count" : 3136,
            "type" : "VEC2"
        },
        {
            "bufferView" : 24,
            "componentType" : 5123,
            "count" : 13956,
            "type" : "SCALAR"
        },
        {
            "bufferView" : 27,
            "componentType" : 5126,
            "count" : 90,
            "max" : [
                -0.004847799893468618,
                0.6949734687805176,
                -0.4339660406112671
            ],
            "min" : [
                -0.014049885794520378,
                0.6869734525680542,
                -0.44180652499198914
            ],
            "type" : "VEC3"
        },
        {
            "bufferView" : 28,
            "componentType" : 5126,
            "count" : 90,
            "type" : "VEC3"
        },
        {
            "bufferView" : 29,
            "componentType" : 5126,
            "count" : 90,
            "type" : "VEC2"
        },
        {
            "bufferView" : 30,
            "componentType" : 5123,
            "count" : 198,
            "type" : "SCALAR"
        }
    ],
    "bufferViews" : [
        {
            "buffer" : 0,
            "byteLength" : 178080,
            "byteOffset" : 0
        },
        {
            "buffer" : 0,
            "byteLength" : 178080,
            "byteOffset" : 178080
        },
        {
            "buffer" : 0,
            "byteLength" : 118720,
            "byteOffset" : 356160
        },
        {
            "buffer" : 0,
            "byteLength" : 54072,
            "byteOffset" : 474880
        },
        {
            "buffer" : 0,
            "byteLength" : 80004,
            "byteOffset" : 528952
        },
        {
            "buffer" : 0,
            "byteLength" : 308844,
            "byteOffset" : 608956
        },
        {
            "buffer" : 0,
            "byteLength" : 308844,
            "byteOffset" : 917800
        },
        {
            "buffer" : 0,
            "byteLength" : 205896,
            "byteOffset" : 1226644
        },
        {
            "buffer" : 0,
            "byteLength" : 100908,
            "byteOffset" : 1432540
        },
        {
            "buffer" : 0,
            "byteLength" : 87539,
            "byteOffset" : 1533448
        },
        {
            "buffer" : 0,
            "byteLength" : 49656,
            "byteOffset" : 1620988
        },
        {
            "buffer" : 0,
            "byteLength" : 49656,
            "byteOffset" : 1670644
        },
        {
            "buffer" : 0,
            "byteLength" : 33104,
            "byteOffset" : 1720300
        },
        {
            "buffer" : 0,
            "byteLength" : 26088,
            "byteOffset" : 1753404
        },
        {
            "buffer" : 0,
            "byteLength" : 87539,
            "byteOffset" : 1779492
        },
        {
            "buffer" : 0,
            "byteLength" : 6300,
            "byteOffset" : 1867032
        },
        {
            "buffer" : 0,
            "byteLength" : 6300,
            "byteOffset" : 1873332
        },
        {
            "buffer" : 0,
            "byteLength" : 4200,
            "byteOffset" : 1879632
        },
        {
            "buffer" : 0,
            "byteLength" : 3408,
            "byteOffset" : 1883832
        },
        {
            "buffer" : 0,
            "byteLength" : 148904,
            "byteOffset" : 1887240
        },
        {
            "buffer" : 0,
            "byteLength" : 141072,
            "byteOffset" : 2036144
        },
        {
            "buffer" : 0,
            "byteLength" : 37632,
            "byteOffset" : 2177216
        },
        {
            "buffer" : 0,
            "byteLength" : 37632,
            "byteOffset" : 2214848
        },
        {
            "buffer" : 0,
            "byteLength" : 25088,
            "byteOffset" : 2252480
        },
        {
            "buffer" : 0,
            "byteLength" : 27912,
            "byteOffset" : 2277568
        },
        {
            "buffer" : 0,
            "byteLength" : 319767,
            "byteOffset" : 2305480
        },
        {
            "buffer" : 0,
            "byteLength" : 311802,
            "byteOffset" : 2625248
        },
        {
            "buffer" : 0,
            "byteLength" : 1080,
            "byteOffset" : 2937052
        },
        {
            "buffer" : 0,
            "byteLength" : 1080,
            "byteOffset" : 2938132
        },
        {
            "buffer" : 0,
            "byteLength" : 720,
            "byteOffset" : 2939212
        },
        {
            "buffer" : 0,
            "byteLength" : 396,
            "byteOffset" : 2939932
        }
    ],
    "buffers" : [
        {
            "byteLength" : 2940328,
            "uri" : "data:application/octet-stream;base64,"
        }
    ]
}
